<svg width="40" height="25" viewBox="0 0 40 25" fill="none" xmlns="http://www.w3.org/2000/svg">
<path d="M9.795 24.35C3.425 24.35 0.24 22.2967 0.24 18.19V7.41C0.24 3.07 3.425 0.899999 9.795 0.899999C11.965 0.899999 14.0417 1.12167 16.025 1.565V4.085C13.785 3.525 11.7317 3.245 9.865 3.245C8.955 3.245 8.16167 3.30333 7.485 3.42C6.80833 3.51333 6.155 3.68833 5.525 3.945C4.17167 4.52833 3.495 5.67167 3.495 7.375V18.015C3.495 20.6283 5.665 21.935 10.005 21.935C11.8717 21.935 13.925 21.655 16.165 21.095V23.685C14.1817 24.1283 12.0583 24.35 9.795 24.35ZM29.5859 24.35C23.2392 24.35 20.0659 22.2967 20.0659 18.19V7.445C20.0659 3.105 23.2392 0.934999 29.5859 0.934999C36.0025 0.934999 39.2109 3.09333 39.2109 7.41V18.19C39.2109 20.3833 38.3242 21.9583 36.5509 22.915C34.7775 23.8717 32.4559 24.35 29.5859 24.35ZM29.6559 22.075C33.8325 22.075 35.9209 20.7683 35.9209 18.155V7.34C35.9209 4.54 33.8209 3.14 29.6209 3.14C27.5909 3.14 26.0275 3.455 24.9309 4.085C23.8575 4.715 23.3209 5.8 23.3209 7.34V18.155C23.3209 20.7683 25.4325 22.075 29.6559 22.075Z" fill="white"/>
</svg>
