<svg width="14" height="24" viewBox="0 0 14 24" fill="none" xmlns="http://www.w3.org/2000/svg">
<path d="M2.912 24V6.4C2.912 4.45867 3.488 2.912 4.64 1.76C5.792 0.586665 7.43467 -1.90735e-06 9.568 -1.90735e-06C10.2933 -1.90735e-06 10.9867 0.0746651 11.648 0.223999C12.3307 0.373332 12.9067 0.607999 13.376 0.927999L12.064 4.544C11.7867 4.352 11.4773 4.20267 11.136 4.096C10.7947 3.98933 10.432 3.936 10.048 3.936C9.32267 3.936 8.75733 4.14933 8.352 4.576C7.968 4.98133 7.776 5.6 7.776 6.432V8.032L7.904 10.176V24H2.912ZM0.256 11.008V7.168H12.192V11.008H0.256Z" fill="black"/>
</svg>
