<svg width="45" height="43" viewBox="0 0 45 43" fill="none" xmlns="http://www.w3.org/2000/svg">
<path d="M22.5 0C28.4674 0 34.1903 2.23883 38.4099 6.22398C42.6295 10.2091 45 15.6141 45 21.25C45 26.8859 42.6295 32.2909 38.4099 36.276C34.1903 40.2612 28.4674 42.5 22.5 42.5C16.5326 42.5 10.8097 40.2612 6.5901 36.276C2.37053 32.2909 0 26.8859 0 21.25C0 15.6141 2.37053 10.2091 6.5901 6.22398C10.8097 2.23883 16.5326 0 22.5 0ZM12.6562 19.9219C12.2833 19.9219 11.9256 20.0618 11.6619 20.3109C11.3982 20.5599 11.25 20.8978 11.25 21.25C11.25 21.6022 11.3982 21.9401 11.6619 22.1891C11.9256 22.4382 12.2833 22.5781 12.6562 22.5781H28.9491L22.9106 28.2784C22.7799 28.4019 22.6762 28.5485 22.6054 28.7099C22.5346 28.8712 22.4982 29.0441 22.4982 29.2188C22.4982 29.3934 22.5346 29.5663 22.6054 29.7276C22.6762 29.889 22.7799 30.0356 22.9106 30.1591C23.0414 30.2825 23.1966 30.3805 23.3674 30.4473C23.5382 30.5142 23.7213 30.5486 23.9062 30.5486C24.0912 30.5486 24.2743 30.5142 24.4451 30.4473C24.6159 30.3805 24.7711 30.2825 24.9019 30.1591L33.3394 22.1903C33.4703 22.0669 33.5742 21.9204 33.6451 21.759C33.716 21.5977 33.7525 21.4247 33.7525 21.25C33.7525 21.0753 33.716 20.9023 33.6451 20.741C33.5742 20.5796 33.4703 20.4331 33.3394 20.3097L24.9019 12.3409C24.7711 12.2175 24.6159 12.1195 24.4451 12.0527C24.2743 11.9858 24.0912 11.9514 23.9062 11.9514C23.7213 11.9514 23.5382 11.9858 23.3674 12.0527C23.1966 12.1195 23.0414 12.2175 22.9106 12.3409C22.7799 12.4644 22.6762 12.611 22.6054 12.7724C22.5346 12.9337 22.4982 13.1066 22.4982 13.2812C22.4982 13.4559 22.5346 13.6288 22.6054 13.7901C22.6762 13.9515 22.7799 14.0981 22.9106 14.2216L28.9491 19.9219H12.6562Z" fill="#F1D582"/>
</svg>
