<svg width="34" height="33" viewBox="0 0 34 33" fill="none" xmlns="http://www.w3.org/2000/svg">
<g clip-path="url(#clip0_126_616)">
<path d="M17 33C17 33 29.75 21.2726 29.75 12.375C29.75 9.09295 28.4067 5.94532 26.0156 3.62455C23.6245 1.30379 20.3815 0 17 0C13.6185 0 10.3755 1.30379 7.98439 3.62455C5.5933 5.94532 4.25 9.09295 4.25 12.375C4.25 21.2726 17 33 17 33ZM17 18.5625C15.3092 18.5625 13.6877 17.9106 12.4922 16.7502C11.2966 15.5898 10.625 14.016 10.625 12.375C10.625 10.734 11.2966 9.16016 12.4922 7.99978C13.6877 6.8394 15.3092 6.1875 17 6.1875C18.6908 6.1875 20.3123 6.8394 21.5078 7.99978C22.7034 9.16016 23.375 10.734 23.375 12.375C23.375 14.016 22.7034 15.5898 21.5078 16.7502C20.3123 17.9106 18.6908 18.5625 17 18.5625Z" fill="#F8F8F8"/>
</g>
<defs>
<clipPath id="clip0_126_616">
<rect width="34" height="33" fill="white"/>
</clipPath>
</defs>
</svg>
