<svg width="38" height="32" viewBox="0 0 38 32" fill="none" xmlns="http://www.w3.org/2000/svg">
<path d="M7.12524 5C7.12524 4.73478 7.25036 4.48043 7.47306 4.29289C7.69575 4.10536 7.9978 4 8.31274 4H20.1877C20.5027 4 20.8047 4.10536 21.0274 4.29289C21.2501 4.48043 21.3752 4.73478 21.3752 5V15C21.3752 15.2652 21.2501 15.5196 21.0274 15.7071C20.8047 15.8946 20.5027 16 20.1877 16H8.31274C7.9978 16 7.69575 15.8946 7.47306 15.7071C7.25036 15.5196 7.12524 15.2652 7.12524 15V5Z" fill="#F8F8F8"/>
<path d="M2.375 4C2.375 2.93913 2.87544 1.92172 3.76624 1.17157C4.65704 0.421427 5.86522 0 7.125 0L21.375 0C22.6348 0 23.843 0.421427 24.7338 1.17157C25.6246 1.92172 26.125 2.93913 26.125 4V20C27.3848 20 28.593 20.4214 29.4838 21.1716C30.3746 21.9217 30.875 22.9391 30.875 24V25C30.875 25.2652 31.0001 25.5196 31.2228 25.7071C31.4455 25.8946 31.7476 26 32.0625 26C32.3774 26 32.6795 25.8946 32.9022 25.7071C33.1249 25.5196 33.25 25.2652 33.25 25V16H32.0625C31.7476 16 31.4455 15.8946 31.2228 15.7071C31.0001 15.5196 30.875 15.2652 30.875 15V8.75C30.875 8.48478 31.0001 8.23043 31.2228 8.04289C31.4455 7.85536 31.7476 7.75 32.0625 7.75H35.6131C35.587 6.798 35.4872 5.962 35.1357 5.306C34.9476 4.92457 34.6198 4.60366 34.2 4.39C33.763 4.17 33.098 4 32.0625 4C31.7476 4 31.4455 3.89464 31.2228 3.70711C31.0001 3.51957 30.875 3.26522 30.875 3C30.875 2.73478 31.0001 2.48043 31.2228 2.29289C31.4455 2.10536 31.7476 2 32.0625 2C33.402 1.99733 34.5198 2.22133 35.416 2.672C36.3256 3.128 36.9217 3.774 37.3017 4.486C38.0024 5.796 38 7.416 38 8.648V14.998C38.0003 15.1295 37.9698 15.2597 37.9103 15.3813C37.8507 15.5029 37.7633 15.6133 37.653 15.7064C37.5427 15.7995 37.4117 15.8733 37.2675 15.9237C37.1233 15.9741 36.9686 16 36.8125 16H35.625V25C35.625 25.7956 35.2497 26.5587 34.5816 27.1213C33.9135 27.6839 33.0073 28 32.0625 28C31.1177 28 30.2115 27.6839 29.5434 27.1213C28.8753 26.5587 28.5 25.7956 28.5 25V24C28.5 23.4696 28.2498 22.9609 27.8044 22.5858C27.359 22.2107 26.7549 22 26.125 22V30H27.3125C27.6274 30 27.9295 30.1054 28.1522 30.2929C28.3749 30.4804 28.5 30.7348 28.5 31C28.5 31.2652 28.3749 31.5196 28.1522 31.7071C27.9295 31.8946 27.6274 32 27.3125 32H1.1875C0.872555 32 0.57051 31.8946 0.347811 31.7071C0.125111 31.5196 0 31.2652 0 31C0 30.7348 0.125111 30.4804 0.347811 30.2929C0.57051 30.1054 0.872555 30 1.1875 30H2.375V4ZM23.75 4C23.75 3.46957 23.4998 2.96086 23.0544 2.58579C22.609 2.21071 22.0049 2 21.375 2H7.125C6.49511 2 5.89102 2.21071 5.44562 2.58579C5.00022 2.96086 4.75 3.46957 4.75 4V30H23.75V4Z" fill="#F8F8F8"/>
</svg>
